<svg width="542" height="403" viewBox="0 0 542 403" fill="none" xmlns="http://www.w3.org/2000/svg">
<path d="M628.026 75.2109L360.412 193.011L88.8848 596.034L87.1943 594.948L85.5039 593.861L357.355 190.358L357.678 189.879L358.214 189.644L626.362 71.6074L628.026 75.2109ZM598.026 54.7012L330.412 172.501L58.8848 575.524L55.5039 573.351L327.355 169.849L327.678 169.369L328.214 169.134L596.362 51.0977L598.026 54.7012ZM575.026 25.4014L307.412 143.201L35.8848 546.225L32.5039 544.051L304.355 140.549L304.678 140.069L305.214 139.833L573.362 21.7979L575.026 25.4014ZM541.691 1.80273L542.523 3.60352L274.909 121.403L3.38086 524.427L1.69141 523.341L0 522.254L271.853 118.751L272.174 118.271L272.711 118.036L540.858 0L541.691 1.80273Z" fill="#F8FCFF"/>
</svg>
