<svg width="55" height="18" viewBox="0 0 55 18" fill="none" xmlns="http://www.w3.org/2000/svg">
<path d="M1.56164e-05 17.136V0.335985H3.16802V14.256H10.848V17.136H1.56164e-05ZM17.7733 17.472C15.6613 17.472 13.9813 16.896 12.7333 15.744C11.4853 14.576 10.8613 12.912 10.8613 10.752V6.71999C10.8613 4.55999 11.4853 2.90399 12.7333 1.75199C13.9813 0.583985 15.6613 -1.4782e-05 17.7733 -1.4782e-05C19.8853 -1.4782e-05 21.5653 0.583985 22.8133 1.75199C24.0613 2.90399 24.6853 4.55999 24.6853 6.71999V10.752C24.6853 12.912 24.0613 14.576 22.8133 15.744C21.5653 16.896 19.8853 17.472 17.7733 17.472ZM17.7733 14.64C18.9573 14.64 19.8773 14.296 20.5333 13.608C21.1893 12.92 21.5173 12 21.5173 10.848V6.62399C21.5173 5.47199 21.1893 4.55199 20.5333 3.86399C19.8773 3.17599 18.9573 2.83199 17.7733 2.83199C16.6053 2.83199 15.6853 3.17599 15.0133 3.86399C14.3573 4.55199 14.0293 5.47199 14.0293 6.62399V10.848C14.0293 12 14.3573 12.92 15.0133 13.608C15.6853 14.296 16.6053 14.64 17.7733 14.64ZM32.0721 17.472C30.9201 17.472 29.8721 17.216 28.9281 16.704C28.0001 16.176 27.2561 15.416 26.6961 14.424C26.1521 13.416 25.8801 12.192 25.8801 10.752V6.71999C25.8801 4.55999 26.4881 2.90399 27.7041 1.75199C28.9201 0.583985 30.5681 -1.4782e-05 32.6481 -1.4782e-05C34.7121 -1.4782e-05 36.3041 0.551985 37.4241 1.65599C38.5601 2.74399 39.1281 4.22399 39.1281 6.09599V6.19199H36.0081V5.99999C36.0081 5.40799 35.8801 4.87199 35.6241 4.39199C35.3841 3.91199 35.0161 3.53599 34.5201 3.26399C34.0241 2.97599 33.4001 2.83199 32.6481 2.83199C31.5281 2.83199 30.6481 3.17599 30.0081 3.86399C29.3681 4.55199 29.0481 5.48799 29.0481 6.67199V10.8C29.0481 11.968 29.3681 12.912 30.0081 13.632C30.6481 14.336 31.5441 14.688 32.6961 14.688C33.8481 14.688 34.6881 14.384 35.2161 13.776C35.7441 13.168 36.0081 12.4 36.0081 11.472V11.232H32.0241V8.54399H39.1281V17.136H36.2001V15.528H35.7681C35.6561 15.8 35.4721 16.088 35.2161 16.392C34.9761 16.696 34.6081 16.952 34.1121 17.16C33.6161 17.368 32.9361 17.472 32.0721 17.472ZM47.4827 17.472C45.3707 17.472 43.6907 16.896 42.4427 15.744C41.1947 14.576 40.5707 12.912 40.5707 10.752V6.71999C40.5707 4.55999 41.1947 2.90399 42.4427 1.75199C43.6907 0.583985 45.3707 -1.4782e-05 47.4827 -1.4782e-05C49.5947 -1.4782e-05 51.2747 0.583985 52.5227 1.75199C53.7707 2.90399 54.3947 4.55999 54.3947 6.71999V10.752C54.3947 12.912 53.7707 14.576 52.5227 15.744C51.2747 16.896 49.5947 17.472 47.4827 17.472ZM47.4827 14.64C48.6667 14.64 49.5867 14.296 50.2427 13.608C50.8987 12.92 51.2267 12 51.2267 10.848V6.62399C51.2267 5.47199 50.8987 4.55199 50.2427 3.86399C49.5867 3.17599 48.6667 2.83199 47.4827 2.83199C46.3147 2.83199 45.3947 3.17599 44.7227 3.86399C44.0667 4.55199 43.7387 5.47199 43.7387 6.62399V10.848C43.7387 12 44.0667 12.92 44.7227 13.608C45.3947 14.296 46.3147 14.64 47.4827 14.64Z" fill="#042967"/>
<path d="M1.56164e-05 17.136V0.335985H3.16802V14.256H10.848V17.136H1.56164e-05ZM17.7733 17.472C15.6613 17.472 13.9813 16.896 12.7333 15.744C11.4853 14.576 10.8613 12.912 10.8613 10.752V6.71999C10.8613 4.55999 11.4853 2.90399 12.7333 1.75199C13.9813 0.583985 15.6613 -1.4782e-05 17.7733 -1.4782e-05C19.8853 -1.4782e-05 21.5653 0.583985 22.8133 1.75199C24.0613 2.90399 24.6853 4.55999 24.6853 6.71999V10.752C24.6853 12.912 24.0613 14.576 22.8133 15.744C21.5653 16.896 19.8853 17.472 17.7733 17.472ZM17.7733 14.64C18.9573 14.64 19.8773 14.296 20.5333 13.608C21.1893 12.92 21.5173 12 21.5173 10.848V6.62399C21.5173 5.47199 21.1893 4.55199 20.5333 3.86399C19.8773 3.17599 18.9573 2.83199 17.7733 2.83199C16.6053 2.83199 15.6853 3.17599 15.0133 3.86399C14.3573 4.55199 14.0293 5.47199 14.0293 6.62399V10.848C14.0293 12 14.3573 12.92 15.0133 13.608C15.6853 14.296 16.6053 14.64 17.7733 14.64ZM32.0721 17.472C30.9201 17.472 29.8721 17.216 28.9281 16.704C28.0001 16.176 27.2561 15.416 26.6961 14.424C26.1521 13.416 25.8801 12.192 25.8801 10.752V6.71999C25.8801 4.55999 26.4881 2.90399 27.7041 1.75199C28.9201 0.583985 30.5681 -1.4782e-05 32.6481 -1.4782e-05C34.7121 -1.4782e-05 36.3041 0.551985 37.4241 1.65599C38.5601 2.74399 39.1281 4.22399 39.1281 6.09599V6.19199H36.0081V5.99999C36.0081 5.40799 35.8801 4.87199 35.6241 4.39199C35.3841 3.91199 35.0161 3.53599 34.5201 3.26399C34.0241 2.97599 33.4001 2.83199 32.6481 2.83199C31.5281 2.83199 30.6481 3.17599 30.0081 3.86399C29.3681 4.55199 29.0481 5.48799 29.0481 6.67199V10.8C29.0481 11.968 29.3681 12.912 30.0081 13.632C30.6481 14.336 31.5441 14.688 32.6961 14.688C33.8481 14.688 34.6881 14.384 35.2161 13.776C35.7441 13.168 36.0081 12.4 36.0081 11.472V11.232H32.0241V8.54399H39.1281V17.136H36.2001V15.528H35.7681C35.6561 15.8 35.4721 16.088 35.2161 16.392C34.9761 16.696 34.6081 16.952 34.1121 17.16C33.6161 17.368 32.9361 17.472 32.0721 17.472ZM47.4827 17.472C45.3707 17.472 43.6907 16.896 42.4427 15.744C41.1947 14.576 40.5707 12.912 40.5707 10.752V6.71999C40.5707 4.55999 41.1947 2.90399 42.4427 1.75199C43.6907 0.583985 45.3707 -1.4782e-05 47.4827 -1.4782e-05C49.5947 -1.4782e-05 51.2747 0.583985 52.5227 1.75199C53.7707 2.90399 54.3947 4.55999 54.3947 6.71999V10.752C54.3947 12.912 53.7707 14.576 52.5227 15.744C51.2747 16.896 49.5947 17.472 47.4827 17.472ZM47.4827 14.64C48.6667 14.64 49.5867 14.296 50.2427 13.608C50.8987 12.92 51.2267 12 51.2267 10.848V6.62399C51.2267 5.47199 50.8987 4.55199 50.2427 3.86399C49.5867 3.17599 48.6667 2.83199 47.4827 2.83199C46.3147 2.83199 45.3947 3.17599 44.7227 3.86399C44.0667 4.55199 43.7387 5.47199 43.7387 6.62399V10.848C43.7387 12 44.0667 12.92 44.7227 13.608C45.3947 14.296 46.3147 14.64 47.4827 14.64Z" fill="black" fill-opacity="0.2"/>
</svg>
